<mxfile host="app.diagrams.net" modified="2024-04-29T04:04:24.935Z" agent="Mozilla/5.0 (Windows NT 10.0; Win64; x64; rv:125.0) Gecko/20100101 Firefox/125.0" version="24.3.1" etag="AD772niAVXH4-sguXOcA" type="github">
  <diagram name="Page-1" id="k7jVbMRQ4s8tCuwa_Y6S">
    <mxGraphModel>
      <root>
        <mxCell id="0" />
        <mxCell id="1" parent="0" />
      </root>
    </mxGraphModel>
  </diagram>
</mxfile>
